<?xml version="1.0" standalone="no"?>
<!DOCTYPE svg PUBLIC "-//W3C//DTD SVG 20010904//EN"
 "http://www.w3.org/TR/2001/REC-SVG-20010904/DTD/svg10.dtd">
<svg version="1.0" xmlns="http://www.w3.org/2000/svg"
 width="128.000000pt" height="128.000000pt" viewBox="0 0 128.000000 128.000000"
 preserveAspectRatio="xMidYMid meet">
<metadata>
Created by potrace 1.14, written by Peter Selinger 2001-2017
</metadata>
<g transform="translate(0.000000,128.000000) scale(0.100000,-0.100000)"
fill="#000000" stroke="none">
<path d="M350 1270 c0 -5 -22 -10 -50 -10 l-50 0 0 -40 0 -40 -45 0 -45 0 0
-50 0 -50 -45 0 -45 0 0 -45 c0 -33 -4 -45 -15 -45 -8 0 -15 -9 -15 -20 0 -11
5 -20 10 -20 6 0 10 -11 10 -25 0 -31 -17 -33 -22 -3 -2 11 -11 22 -20 24 -17
2 -18 -17 -18 -290 l0 -293 33 -9 c29 -9 32 -14 33 -49 l0 -40 47 -3 47 -3 0
-49 0 -49 43 2 42 2 3 -43 3 -42 50 0 49 0 0 -40 0 -40 306 0 c297 0 306 1
301 19 -3 14 -1 18 9 14 10 -3 14 3 14 20 0 24 4 26 48 29 33 2 47 7 48 18 1
8 2 27 2 41 1 15 8 27 15 26 63 -2 67 1 67 48 l0 45 44 0 c25 0 47 3 50 8 2 4
6 44 8 90 1 45 6 82 11 82 4 0 7 104 7 230 0 140 -4 230 -10 230 -5 0 -11 39
-12 88 l-3 87 -47 3 -48 3 0 43 0 44 -43 6 c-41 6 -43 8 -45 43 -2 21 -4 39
-6 40 -2 2 -38 4 -80 5 -42 0 -79 4 -82 9 -8 13 -554 12 -554 -1z"/>
<path d="M1271 364 c0 -11 3 -14 6 -6 3 7 2 16 -1 19 -3 4 -6 -2 -5 -13z"/>
</g>
</svg>
